<svg width="142" height="161" viewBox="0 0 142 161" fill="none" xmlns="http://www.w3.org/2000/svg">
<circle cx="71" cy="80" r="71" fill="#C62323"/>
<path d="M63.0527 109C61.9085 109 61.0736 108.737 60.5479 108.211C60.0221 107.686 59.7593 106.851 59.7593 105.707V53.7534C59.7593 52.8566 60.1613 52.1917 60.9653 51.7588C61.7694 51.2949 63.0218 51.063 64.7227 51.063H67.5059C69.2067 51.063 70.4591 51.2949 71.2632 51.7588C72.0672 52.1917 72.4692 52.8566 72.4692 53.7534V98.1919H90.8384C91.7043 98.1919 92.3228 98.5166 92.6938 99.166C93.0959 99.8154 93.2969 100.851 93.2969 102.274V104.872C93.2969 106.325 93.0959 107.376 92.6938 108.026C92.3228 108.675 91.7043 109 90.8384 109H63.0527Z" fill="white"/>
</svg>
